<?xml version="1.0"?>
<svg xmlns="http://www.w3.org/2000/svg" id="Capa_1" enable-background="new 0 0 512 512" height="512px" viewBox="0 0 512 512" width="512px" class="hovered-paths"><g><g><circle cx="106" cy="347" r="45" data-original="#000000" class="hovered-path active-path" data-old_color="#000000" fill="#626284"/><circle cx="256" cy="377" r="45" data-original="#000000" class="hovered-path active-path" data-old_color="#000000" fill="#626284"/><circle cx="406" cy="347" r="45" data-original="#000000" class="hovered-path active-path" data-old_color="#000000" fill="#626284"/><path d="m256 422c-41.353 0-75 33.647-75 75 0 8.291 6.709 15 15 15h120c8.291 0 15-6.709 15-15 0-41.353-33.647-75-75-75z" data-original="#000000" class="hovered-path active-path" data-old_color="#000000" fill="#626284"/><circle cx="256" cy="106" r="15" data-original="#000000" class="hovered-path active-path" data-old_color="#000000" fill="#626284"/><path d="m497 30c8.291 0 15-6.709 15-15s-6.709-15-15-15h-482c-8.291 0-15 6.709-15 15s6.709 15 15 15h15v212h-15c-8.291 0-15 6.709-15 15s6.709 15 15 15h166v-45c0-41.353 33.647-76 75-76-24.814 0-45-20.186-45-45s20.186-45 45-45 45 20.186 45 45-20.186 45-45 45c41.353 0 75 34.647 75 76v45h166c8.291 0 15-6.709 15-15s-6.709-15-15-15h-15v-212z" data-original="#000000" class="hovered-path active-path" data-old_color="#000000" fill="#626284"/><path d="m301 227c0-24.814-20.186-46-45-46s-45 21.186-45 46v45h90z" data-original="#000000" class="hovered-path active-path" data-old_color="#000000" fill="#626284"/><path d="m406 392c-29.317 0-54.498 17.075-66.824 41.655 10.591 13.867 17.693 30.306 20.308 48.345h106.516c8.291 0 15-6.709 15-15 0-41.353-33.647-75-75-75z" data-original="#000000" class="hovered-path active-path" data-old_color="#000000" fill="#626284"/><path d="m106 392c-41.353 0-75 33.647-75 75 0 8.291 6.709 15 15 15h106.516c2.615-18.04 9.717-34.479 20.308-48.345-12.326-24.58-37.507-41.655-66.824-41.655z" data-original="#000000" class="hovered-path active-path" data-old_color="#000000" fill="#626284"/></g></g> </svg>
