<?xml version="1.0"?>
<svg xmlns="http://www.w3.org/2000/svg" id="color" enable-background="new 0 0 24 24" height="512px" viewBox="0 0 24 24" width="512px" class="hovered-paths"><g><path d="m13.25 16h-2.5c-.689 0-1.25-.561-1.25-1.25v-5.75h-2.75c-.659 0-.998-.791-.542-1.268l5.25-5.5c.283-.296.802-.296 1.085 0l5.25 5.5c.455.477.116 1.268-.543 1.268h-2.75v5.75c0 .689-.561 1.25-1.25 1.25z" fill="#00bcd4" data-original="#00BCD4" class="hovered-path"/><path d="m22.25 22h-20.5c-.965 0-1.75-.785-1.75-1.75v-.5c0-.965.785-1.75 1.75-1.75h20.5c.965 0 1.75.785 1.75 1.75v.5c0 .965-.785 1.75-1.75 1.75z" fill="#607d8b" data-original="#607D8B"/><path d="m12 2.01c-.2 0-.401.074-.542.222l-5.25 5.5c-.456.477-.117 1.268.542 1.268h2.75v5.75c0 .689.561 1.25 1.25 1.25h1.25z" fill="#00a4b9" data-original="#00A4B9" class=""/><path d="m12 18h-10.25c-.965 0-1.75.785-1.75 1.75v.5c0 .965.785 1.75 1.75 1.75h10.25z" fill="#546d79" data-original="#546D79" class="active-path" style="fill:#546D79"/></g> </svg>
